<?xml version="1.0" encoding="utf-8"?>
<!-- Generator: Adobe Illustrator 21.0.0, SVG Export Plug-In . SVG Version: 6.00 Build 0)  -->
<!DOCTYPE svg PUBLIC "-//W3C//DTD SVG 1.1//EN" "http://www.w3.org/Graphics/SVG/1.1/DTD/svg11.dtd">
<svg version="1.1" id="Layer_1" xmlns="http://www.w3.org/2000/svg" xmlns:xlink="http://www.w3.org/1999/xlink" x="0px" y="0px"
	 viewBox="0 0 156 64" style="enable-background:new 0 0 156 64;" xml:space="preserve">
<style type="text/css">
	.st0{fill:#29374F;}
	.st1{fill:#FFFFFF;}
	.st2{fill:#D6E4D2;}
	.st3{fill:#212C41;}
	.st4{fill:#86AFBA;}
	.st5{fill:#D9855B;}
	.st6{fill:#D7E4D3;}
</style>
<g>
	<circle class="st0" cx="30.8" cy="32.3" r="24.8"/>
	<circle class="st1" cx="24.2" cy="22.6" r="1.2"/>
	<g>
		<circle class="st2" cx="24" cy="39.4" r="0.8"/>
		<path class="st3" d="M24,38.8c0.3,0,0.6,0.3,0.6,0.6c0,0.3-0.3,0.6-0.6,0.6c-0.3,0-0.6-0.3-0.6-0.6C23.4,39,23.6,38.8,24,38.8
			 M24,38.4c-0.6,0-1,0.5-1,1c0,0.6,0.5,1,1,1s1-0.5,1-1C25,38.8,24.5,38.4,24,38.4L24,38.4z"/>
	</g>
	<g>
		<circle class="st2" cx="18.1" cy="26.4" r="0.6"/>
		<path class="st3" d="M18.1,26c0.2,0,0.4,0.2,0.4,0.4s-0.2,0.4-0.4,0.4c-0.2,0-0.4-0.2-0.4-0.4S17.9,26,18.1,26 M18.1,25.6
			c-0.5,0-0.8,0.4-0.8,0.8s0.4,0.8,0.8,0.8c0.5,0,0.8-0.4,0.8-0.8S18.6,25.6,18.1,25.6L18.1,25.6z"/>
	</g>
	<g>
		<circle class="st2" cx="32.9" cy="31.2" r="0.6"/>
		<path class="st3" d="M32.9,30.8c0.2,0,0.4,0.2,0.4,0.4c0,0.2-0.2,0.4-0.4,0.4c-0.2,0-0.4-0.2-0.4-0.4C32.5,31,32.6,30.8,32.9,30.8
			 M32.9,30.4c-0.5,0-0.8,0.4-0.8,0.8s0.4,0.8,0.8,0.8s0.8-0.4,0.8-0.8S33.3,30.4,32.9,30.4L32.9,30.4z"/>
	</g>
	<g>
		<circle class="st2" cx="44.3" cy="35.7" r="0.6"/>
		<path class="st3" d="M44.3,35.2c0.2,0,0.4,0.2,0.4,0.4c0,0.2-0.2,0.4-0.4,0.4c-0.2,0-0.4-0.2-0.4-0.4C43.9,35.4,44,35.2,44.3,35.2
			 M44.3,34.8c-0.5,0-0.8,0.4-0.8,0.8c0,0.5,0.4,0.8,0.8,0.8c0.5,0,0.8-0.4,0.8-0.8C45.1,35.2,44.7,34.8,44.3,34.8L44.3,34.8z"/>
	</g>
	<g>
		<circle class="st2" cx="30.8" cy="27.2" r="0.8"/>
		<path class="st3" d="M30.8,26.5c0.3,0,0.6,0.3,0.6,0.6c0,0.3-0.3,0.6-0.6,0.6c-0.3,0-0.6-0.3-0.6-0.6
			C30.2,26.8,30.4,26.5,30.8,26.5 M30.8,26.1c-0.6,0-1,0.5-1,1c0,0.6,0.5,1,1,1c0.6,0,1-0.5,1-1C31.8,26.6,31.3,26.1,30.8,26.1
			L30.8,26.1z"/>
	</g>
	<g>
		<circle class="st2" cx="14.2" cy="31" r="0.8"/>
		<path class="st3" d="M14.2,30.4c0.3,0,0.6,0.3,0.6,0.6c0,0.3-0.3,0.6-0.6,0.6c-0.3,0-0.6-0.3-0.6-0.6
			C13.6,30.7,13.9,30.4,14.2,30.4 M14.2,30c-0.6,0-1,0.5-1,1c0,0.6,0.5,1,1,1s1-0.5,1-1C15.2,30.5,14.8,30,14.2,30L14.2,30z"/>
	</g>
	<g>
		<circle class="st2" cx="41.3" cy="37.7" r="0.8"/>
		<path class="st3" d="M41.3,37.1c0.3,0,0.6,0.3,0.6,0.6c0,0.3-0.3,0.6-0.6,0.6c-0.3,0-0.6-0.3-0.6-0.6C40.7,37.4,41,37.1,41.3,37.1
			 M41.3,36.7c-0.6,0-1,0.5-1,1c0,0.6,0.5,1,1,1c0.6,0,1-0.5,1-1C42.3,37.2,41.9,36.7,41.3,36.7L41.3,36.7z"/>
	</g>
	<circle class="st1" cx="36.7" cy="33.2" r="1.6"/>
	<g id="header_name">
		<path class="st4" d="M71.5,28.6l-0.3-1.4h-2.8l-0.3,1.4h-3.4l3.2-10.9h3.7l3.2,10.9H71.5z M69.8,20.9L69,24.5h1.6L69.8,20.9z"/>
		<path class="st4" d="M84.4,28.6v-5.9l-2,5.9h-1.2l-2-5.9v5.9h-3.1V17.7h4.1l1.6,4.8l1.6-4.8h4v10.9H84.4z"/>
		<path class="st4" d="M92.2,28.6v-4.4l-3.4-6.5h3.4l1.6,3.7l1.5-3.7h3.4l-3.4,6.5v4.4H92.2z"/>
		<path class="st4" d="M104.1,28.6V17.7h4.7c2.5,0,3.7,1.7,3.7,3.7c0,2-1.2,3.7-3.7,3.7h-1.6v3.5H104.1z M109.4,21.4
			c0-0.6-0.4-1-1-1h-1.3v2h1.3C109,22.4,109.4,22.1,109.4,21.4z"/>
		<path class="st4" d="M114.3,28.6V17.7h6.9v2.7h-3.8v1.3h3.7v2.7h-3.7v1.5h3.8v2.7H114.3z"/>
		<path class="st4" d="M123.3,28.6V17.7h4.1c3.2,0,5.1,2.2,5.1,5.4c0,3.3-1.9,5.5-5.1,5.5H123.3z M129.3,23.2c0-1.8-0.7-2.7-2-2.7
			h-1v5.5h1C128.6,25.9,129.3,24.9,129.3,23.2z"/>
		<path class="st4" d="M134.3,28.6V17.7h3.1v10.9H134.3z"/>
		<path class="st4" d="M139.7,28.6V17.7h4.1c3.2,0,5.1,2.2,5.1,5.4c0,3.3-1.9,5.5-5.1,5.5H139.7z M145.8,23.2c0-1.8-0.7-2.7-2-2.7
			h-1v5.5h1C145,25.9,145.8,24.9,145.8,23.2z"/>
		<path class="st5" d="M70.7,41.6l-0.6-2.1h-3.3l-0.6,2.1H65l2.8-9.2h1.3l2.8,9.2H70.7z M68.4,33.6l-1.4,5h2.8L68.4,33.6z"/>
		<path class="st5" d="M77.8,41.6L76,37.9h-1.3v3.7h-1.1v-9.2h2.8c1.5,0,2.5,1.1,2.5,2.8c0,1.6-0.9,2.4-1.8,2.6l1.9,3.9H77.8z
			 M77.8,35.2c0-1.1-0.6-1.8-1.5-1.8h-1.6V37h1.6C77.2,37,77.8,36.2,77.8,35.2z"/>
		<path class="st5" d="M82.7,41.6v-8.3h-2.2v-1H86v1h-2.2v8.3H82.7z"/>
		<path class="st5" d="M91.5,41.6v-9.2H94c2.4,0,3.7,2,3.7,4.6c0,2.7-1.3,4.6-3.7,4.6H91.5z M96.6,37c0-2.1-0.9-3.7-2.6-3.7h-1.4
			v7.3H94C95.7,40.6,96.6,39.1,96.6,37z"/>
		<path class="st5" d="M100,41.6v-9.2h1.1v9.2H100z"/>
		<path class="st5" d="M107.9,41.6l-1.8-3.7h-1.3v3.7h-1.1v-9.2h2.8c1.5,0,2.5,1.1,2.5,2.8c0,1.6-0.9,2.4-1.8,2.6l1.9,3.9H107.9z
			 M107.9,35.2c0-1.1-0.6-1.8-1.5-1.8h-1.6V37h1.6C107.3,37,107.9,36.2,107.9,35.2z"/>
		<path class="st5" d="M111.4,41.6v-9.2h4.7v1h-3.6v3.1h3.5v1h-3.5v3.3h3.6v1H111.4z"/>
		<path class="st5" d="M118.1,37c0-2.8,1.4-4.8,3.6-4.8c1.4,0,2.2,0.8,2.7,1.8l-0.9,0.4c-0.4-0.7-1-1.2-1.8-1.2
			c-1.5,0-2.4,1.6-2.4,3.8c0,2.2,1,3.8,2.4,3.8c0.8,0,1.5-0.6,1.8-1.4l0.9,0.4c-0.5,1-1.3,1.9-2.7,1.9
			C119.4,41.8,118.1,39.8,118.1,37z"/>
		<path class="st5" d="M128,41.6v-8.3h-2.2v-1h5.5v1H129v8.3H128z"/>
		<path class="st5" d="M132.6,37c0-2.7,1.2-4.8,3.5-4.8c2.2,0,3.5,2.1,3.5,4.8c0,2.7-1.3,4.8-3.5,4.8
			C133.9,41.8,132.6,39.7,132.6,37z M138.5,37c0-2.1-0.8-3.8-2.4-3.8c-1.5,0-2.4,1.7-2.4,3.8c0,2.1,0.8,3.8,2.4,3.8
			C137.6,40.8,138.5,39.1,138.5,37z"/>
		<path class="st5" d="M146.1,41.6l-1.8-3.7H143v3.7h-1.1v-9.2h2.8c1.5,0,2.5,1.1,2.5,2.8c0,1.6-0.9,2.4-1.8,2.6l1.9,3.9H146.1z
			 M146.1,35.2c0-1.1-0.6-1.8-1.5-1.8H143V37h1.6C145.5,37,146.1,36.2,146.1,35.2z"/>
	</g>
	<g id="header_tag">
		<path class="st6" d="M66.1,52.4v-5.7h-1.5V46h3.8v0.7h-1.5v5.7H66.1z"/>
		<path class="st6" d="M72.5,52.4v-3.3c0-0.6-0.3-0.8-0.7-0.8c-0.4,0-0.9,0.4-1.1,0.7v3.4H70V46h0.7v2.4c0.3-0.4,0.8-0.8,1.3-0.8
			c0.8,0,1.1,0.4,1.1,1.2v3.5H72.5z"/>
		<path class="st6" d="M75,46.7c0-0.3,0.2-0.5,0.5-0.5c0.3,0,0.5,0.2,0.5,0.5s-0.2,0.5-0.5,0.5C75.2,47.1,75,46.9,75,46.7z
			 M75.1,52.4v-4.6h0.7v4.6H75.1z"/>
		<path class="st6" d="M80.2,52.4v-3.3c0-0.6-0.3-0.8-0.7-0.8c-0.4,0-0.9,0.4-1.1,0.7v3.4h-0.7v-4.6h0.7v0.7
			c0.3-0.4,0.8-0.8,1.3-0.8c0.8,0,1.2,0.4,1.2,1.2v3.4H80.2z"/>
		<path class="st6" d="M85.4,52.4l-1.3-2.1l-0.6,0.8v1.2h-0.7V46h0.7v4.2l1.9-2.5h0.8l-1.6,2.1l1.6,2.5H85.4z"/>
		<path class="st6" d="M90.5,52.4V46h0.7v2.4c0.3-0.5,0.7-0.8,1.2-0.8c1,0,1.6,1,1.6,2.4c0,1.4-0.6,2.4-1.6,2.4
			c-0.5,0-0.9-0.3-1.2-0.8v0.7H90.5z M92.2,51.9c0.7,0,1.1-0.8,1.1-1.8c0-1-0.4-1.8-1.1-1.8c-0.4,0-0.9,0.4-1,0.8v2.1
			C91.3,51.5,91.8,51.9,92.2,51.9z"/>
		<path class="st6" d="M95.6,46.7c0-0.3,0.2-0.5,0.5-0.5c0.3,0,0.5,0.2,0.5,0.5s-0.2,0.5-0.5,0.5C95.8,47.1,95.6,46.9,95.6,46.7z
			 M95.8,52.4v-4.6h0.7v4.6H95.8z"/>
		<path class="st6" d="M98.4,53.6l0.3-0.5c0.3,0.4,0.7,0.5,1.2,0.5c0.6,0,1.1-0.4,1.1-1.2v-0.8c-0.3,0.5-0.7,0.8-1.2,0.8
			c-1,0-1.6-0.9-1.6-2.4c0-1.4,0.6-2.4,1.6-2.4c0.5,0,0.9,0.3,1.2,0.8v-0.7h0.7v4.6c0,1.4-0.9,1.9-1.8,1.9
			C99.3,54.2,98.8,54.1,98.4,53.6z M101,51.1v-2c-0.2-0.4-0.6-0.7-1-0.7c-0.7,0-1.1,0.8-1.1,1.8s0.4,1.8,1.1,1.8
			C100.4,51.8,100.8,51.5,101,51.1z"/>
		<path class="st6" d="M103.6,51.9c0-0.3,0.2-0.5,0.5-0.5c0.3,0,0.5,0.2,0.5,0.5c0,0.3-0.2,0.5-0.5,0.5
			C103.8,52.5,103.6,52.2,103.6,51.9z"/>
		<path class="st6" d="M109.3,52.4V46h1.9c1.2,0,1.7,0.9,1.7,1.9s-0.6,1.9-1.7,1.9h-1.2v2.5H109.3z M112.2,47.9c0-0.7-0.4-1.2-1-1.2
			h-1.1v2.5h1.1C111.8,49.2,112.2,48.7,112.2,47.9z"/>
		<path class="st6" d="M114.6,52.4V46h0.7v6.3H114.6z"/>
		<path class="st6" d="M119.6,52.4v-0.5c-0.3,0.4-0.7,0.6-1.2,0.6c-0.7,0-1.4-0.6-1.4-1.5s0.6-1.5,1.4-1.5c0.5,0,0.9,0.2,1.2,0.6
			v-0.8c0-0.6-0.3-1-0.9-1c-0.4,0-0.8,0.2-1.1,0.6l-0.3-0.5c0.4-0.5,1-0.7,1.6-0.7c0.9,0,1.5,0.4,1.5,1.5v3.2H119.6z M119.6,51.4
			v-0.9c-0.2-0.4-0.6-0.6-1-0.6c-0.6,0-0.9,0.4-0.9,1s0.3,1,0.9,1C119,52,119.4,51.8,119.6,51.4z"/>
		<path class="st6" d="M124.7,52.4v-3.3c0-0.6-0.3-0.8-0.7-0.8c-0.4,0-0.9,0.4-1.1,0.7v3.4h-0.7v-4.6h0.7v0.7
			c0.3-0.4,0.8-0.8,1.3-0.8c0.8,0,1.2,0.4,1.2,1.2v3.4H124.7z"/>
		<path class="st6" d="M133.5,52.4l-1-3.7l-1,3.7h-0.7l-1.2-4.6h0.7l0.9,3.7l1-3.7h0.6l1,3.7l0.9-3.7h0.7l-1.2,4.6H133.5z"/>
		<path class="st6" d="M136.7,50.1c0-1.3,0.7-2.4,1.9-2.4c1.2,0,1.8,1.1,1.8,2.4v0.2h-3c0,0.9,0.5,1.6,1.3,1.6
			c0.4,0,0.8-0.2,1.1-0.6l0.4,0.4c-0.4,0.5-0.9,0.7-1.5,0.7C137.4,52.5,136.7,51.5,136.7,50.1z M138.5,48.2c-0.8,0-1.1,0.9-1.1,1.6
			h2.3C139.7,49.1,139.4,48.2,138.5,48.2z"/>
		<path class="st6" d="M142.1,52.4V46h0.7v6.3H142.1z"/>
		<path class="st6" d="M144.7,52.4V46h0.7v6.3H144.7z"/>
		<path class="st6" d="M147.3,51.9c0-0.3,0.2-0.5,0.5-0.5c0.3,0,0.5,0.2,0.5,0.5c0,0.3-0.2,0.5-0.5,0.5
			C147.5,52.5,147.3,52.2,147.3,51.9z"/>
	</g>
	<circle class="st1" cx="36.7" cy="42.6" r="1.2"/>
	<path class="st5" d="M37.6,40v-3.8c-0.2,0.1-0.4,0.1-0.6,0.1v3.6C37.2,39.9,37.4,39.9,37.6,40z"/>
	<path class="st4" d="M36.4,39.9v-3.6c-0.2,0-0.4-0.1-0.6-0.1V40C36,39.9,36.2,39.9,36.4,39.9z"/>
	<circle class="st1" cx="36.7" cy="22.7" r="0.9"/>
	<path class="st5" d="M43.5,22.2H39c0,0.2,0.1,0.3,0.1,0.5c0,0,0,0.1,0,0.1h4.5c2.8,0,5.1,2.3,5.1,5.1c0,2.8-2.3,5.1-5.1,5.1h-3.7
		c0,0.1,0,0.2,0,0.2c0,0.1,0,0.2,0,0.4h3.7c3.1,0,5.7-2.5,5.7-5.6c0,0,0,0,0,0c0,0,0,0,0,0c0,0,0,0,0,0
		C49.2,24.7,46.7,22.2,43.5,22.2z"/>
	<path class="st5" d="M37,25v5c0.2,0,0.4,0.1,0.6,0.1v-5.3C37.4,25,37.2,25,37,25z"/>
	<path class="st4" d="M35.8,24.9v5.3c0.2-0.1,0.4-0.1,0.6-0.1v-5C36.2,25,36,25,35.8,24.9z"/>
	<circle class="st1" cx="19.6" cy="33.2" r="1.6"/>
	<path class="st4" d="M20.6,30.2l2.1-5.3c-0.2-0.1-0.3-0.2-0.5-0.4L20,30.1C20.2,30.1,20.4,30.2,20.6,30.2z"/>
	<path class="st5" d="M21.8,30.9l2.2-5.6c-0.2,0-0.4-0.1-0.6-0.1l-2.1,5.3C21.4,30.6,21.6,30.8,21.8,30.9z"/>
	<circle class="st1" cx="28.5" cy="33.2" r="0.9"/>
	<path class="st5" d="M28,30.9l-2.3-6c-0.2,0.1-0.4,0.2-0.5,0.3l2.3,5.9C27.6,31,27.8,30.9,28,30.9z"/>
	<path class="st5" d="M26.2,33.5c0-0.1,0-0.2,0-0.3c0-0.1,0-0.2,0-0.3h-3.5c0,0.1,0,0.2,0,0.3c0,0.1,0,0.2,0,0.3H26.2z"/>
	<circle class="st1" cx="16" cy="42.6" r="1.2"/>
	<path class="st5" d="M17.9,40.6l1.7-4.3c0,0,0,0,0,0c-0.2,0-0.4,0-0.6-0.1l-1.6,4C17.6,40.3,17.8,40.5,17.9,40.6z"/>
	<path class="st4" d="M16.7,39.9l1.6-3.9c-0.2-0.1-0.4-0.2-0.5-0.3l-1.6,4.1C16.4,39.9,16.6,39.9,16.7,39.9z"/>
	<circle class="st1" cx="32.3" cy="42.6" r="1.2"/>
	<path class="st5" d="M31.5,39.9l-1.9-4.7c-0.2,0.1-0.4,0.2-0.6,0.2l1.9,4.7C31.2,40.1,31.4,40,31.5,39.9z"/>
</g>
</svg>
