<?xml version="1.0" encoding="utf-8"?>
<!-- Generator: Adobe Illustrator 21.0.0, SVG Export Plug-In . SVG Version: 6.00 Build 0)  -->
<!DOCTYPE svg PUBLIC "-//W3C//DTD SVG 1.1//EN" "http://www.w3.org/Graphics/SVG/1.1/DTD/svg11.dtd">
<svg version="1.1" id="Layer_1" xmlns="http://www.w3.org/2000/svg" xmlns:xlink="http://www.w3.org/1999/xlink" x="0px" y="0px"
	 viewBox="0 0 111 81" style="enable-background:new 0 0 111 81;" xml:space="preserve">
<style type="text/css">
	.st0{fill:#D5E4D2;}
	.st1{fill:#212C41;}
</style>
<g id="insp-print-icon_1_">
	<g>
		<path class="st0" d="M48.2,62.9H34.4c-0.3,0-0.5-0.2-0.5-0.5V51.1c0-0.3,0.2-0.5,0.5-0.5h13.8c0.3,0,0.5,0.2,0.5,0.5v11.3
			C48.7,62.6,48.4,62.9,48.2,62.9z M34.9,61.9h12.8V51.6H34.9V61.9z"/>
	</g>
	<g>
		<path class="st0" d="M99.3,62.8H63c-0.3,0-0.5-0.2-0.5-0.5s0.2-0.5,0.5-0.5h36.3c0.3,0,0.5,0.2,0.5,0.5S99.6,62.8,99.3,62.8z"/>
	</g>
	<g>
		<path class="st0" d="M99.3,57.6H63c-0.3,0-0.5-0.2-0.5-0.5V8.6c0-0.3,0.2-0.5,0.5-0.5h36.3c0.3,0,0.5,0.2,0.5,0.5v48.5
			C99.8,57.4,99.6,57.6,99.3,57.6z M63.5,56.6h35.3V9.1H63.5V56.6z"/>
	</g>
	<path class="st1" d="M89.6,19.4c-2.3-2.3-5.2-3.5-8.4-3.5c-3.2,0-6.4,1.3-8.6,3.6c-2.2,2.2-3.4,5.2-3.3,8.3c0.1,5.8,4,8.5,5.9,9.7
		c0.4,0.2,0.7,0.4,0.8,0.6c1.1,1,1.2,2.1,1.2,2.7h0c-0.3,0-0.5,0.2-0.5,0.5v5.9c0,0.3,0.2,0.5,0.5,0.5h8.6c0.3,0,0.5-0.2,0.5-0.5
		v-5.9c0-0.3-0.2-0.5-0.5-0.5h-0.1c0,0,0,0,0,0c0-0.5-0.1-1.6,0.9-2.6c0.2-0.2,0.5-0.4,0.9-0.7c2-1.4,5.7-4,5.7-9.7
		C93.1,24.6,91.9,21.6,89.6,19.4z M77.6,41.8L77.6,41.8c0.1,0,0.2,0,0.2,0c0,0,0,0,0.1,0h7.3v1.7h-7.6V41.8z M77.6,46.7v-2.2h7.6
		v2.2H77.6z M86.8,36.6c-0.5,0.3-0.8,0.6-1.1,0.8c-0.5,0.5-0.8,1-0.9,1.5h-1.7V27.6c0,0,0,0,0,0c0,0,0,0,0,0c0-0.9,0.7-1.6,1.6-1.6
		s1.6,0.7,1.6,1.6c0,0.9-0.7,1.6-1.6,1.6c-0.3,0-0.5,0.2-0.5,0.5s0.2,0.5,0.5,0.5c1.4,0,2.6-1.2,2.6-2.6S86.1,25,84.7,25
		s-2.6,1.2-2.6,2.6c0,0,0,0,0,0c0,0,0,0,0,0V39h-1.6V27.6c0,0,0,0,0,0c0,0,0,0,0,0c0-1.4-1.2-2.6-2.6-2.6s-2.6,1.2-2.6,2.6
		s1.2,2.6,2.6,2.6c0.3,0,0.5-0.2,0.5-0.5s-0.2-0.5-0.5-0.5c-0.9,0-1.6-0.7-1.6-1.6c0-0.9,0.7-1.6,1.6-1.6s1.6,0.7,1.6,1.6
		c0,0,0,0,0,0c0,0,0,0,0,0V39h-1.7c-0.2-0.5-0.6-1.1-1.1-1.7c-0.2-0.2-0.5-0.4-0.9-0.7c-1.9-1.3-5.3-3.6-5.5-8.9
		c-0.1-2.8,1-5.5,3-7.5c2.1-2.1,4.9-3.3,7.9-3.3c2.9,0,5.7,1.1,7.7,3.2c2,2.1,3.2,4.8,3.2,7.7C92.1,33,88.6,35.4,86.8,36.6z"/>
	<path class="st1" d="M24.5,78.4c0.1,0,0.2,0,0.2,0c0.1,0,0.2,0,0.2,0l4.5,1.6V0.6H20v79.3L24.5,78.4z"/>
	<path class="st0" d="M18.5,44.8h-6.7c-0.4,0-0.7,0.3-0.7,0.7s0.3,0.7,0.7,0.7h6.7V44.8z"/>
	<path class="st0" d="M48.2,44.8H31v1.5h17.2c0.4,0,0.7-0.3,0.7-0.7S48.6,44.8,48.2,44.8z"/>
	<path class="st0" d="M18.5,39.2h-6.7c-0.4,0-0.7,0.3-0.7,0.7s0.3,0.7,0.7,0.7h6.7V39.2z"/>
	<path class="st0" d="M48.2,39.2H31v1.5h17.2c0.4,0,0.7-0.3,0.7-0.7S48.6,39.2,48.2,39.2z"/>
	<path class="st0" d="M18.5,33.6h-6.7c-0.4,0-0.7,0.3-0.7,0.7s0.3,0.7,0.7,0.7h6.7V33.6z"/>
	<path class="st0" d="M48.2,33.6H31v1.5h17.2c0.4,0,0.7-0.3,0.7-0.7S48.6,33.6,48.2,33.6z"/>
	<path class="st0" d="M18.6,50.4h-6.7c-0.4,0-0.7,0.3-0.7,0.7s0.3,0.7,0.7,0.7h6.7V50.4z"/>
	<path class="st0" d="M18.6,61.6h-6.7c-0.4,0-0.7,0.3-0.7,0.7c0,0.4,0.3,0.7,0.7,0.7h6.7V61.6z"/>
	<path class="st0" d="M18.6,56h-6.7c-0.4,0-0.7,0.3-0.7,0.7s0.3,0.7,0.7,0.7h6.7V56z"/>
	<g>
		<path class="st0" d="M18.5,28h-5.9V9.3h5.9V7.9h-6.6c-0.4,0-0.7,0.3-0.7,0.7v20.1c0,0.4,0.3,0.7,0.7,0.7h6.6V28z"/>
		<path class="st0" d="M48.2,7.9H30.7v1.5h16.7V28H30.7v1.5h17.4c0.4,0,0.7-0.3,0.7-0.7V8.6C48.9,8.2,48.6,7.9,48.2,7.9z"/>
	</g>
	<g>
		<path class="st1" d="M109.1,5.8h-2.4V2.5c0-0.3-0.2-0.5-0.5-0.5H56c-0.1-0.1-0.3-0.2-0.5-0.2H30.7v1.5h24v64.2H30.9v4.4l78.2,0.1
			c0.4,0,0.7-0.3,0.7-0.7V6.5C109.8,6.1,109.5,5.8,109.1,5.8z M105.7,67.7H56.2V3h49.5V67.7z"/>
		<path class="st1" d="M5.5,3.3h12.9V1.8H4.8c-0.4,0-0.7,0.3-0.7,0.7v3.2H1.8c-0.4,0-0.7,0.3-0.7,0.7v64.6c0,0.4,0.3,0.7,0.7,0.7
			h16.8v-4.4h-13V3.3z"/>
	</g>
</g>
</svg>
