<?xml version="1.0" encoding="utf-8"?>
<!-- Generator: Adobe Illustrator 21.0.0, SVG Export Plug-In . SVG Version: 6.00 Build 0)  -->
<!DOCTYPE svg PUBLIC "-//W3C//DTD SVG 1.1//EN" "http://www.w3.org/Graphics/SVG/1.1/DTD/svg11.dtd">
<svg version="1.1" id="Layer_1" xmlns="http://www.w3.org/2000/svg" xmlns:xlink="http://www.w3.org/1999/xlink" x="0px" y="0px"
	 viewBox="0 0 89.4 90.4" style="enable-background:new 0 0 89.4 90.4;" xml:space="preserve">
<style type="text/css">
	.st0{fill:#DFEDF4;}
	.st1{fill:#212C41;}
	.st2{fill:#DA865B;}
	.st3{fill:#D0E5EE;}
</style>
<g>
	<g>
		<g>
			<circle class="st0" cx="44.8" cy="45.2" r="44.3"/>
		</g>
	</g>
</g>
<g>
	<g>
		<g>
			<ellipse class="st1" cx="44.3" cy="68.4" rx="19.2" ry="1.8"/>
		</g>
	</g>
</g>
<path class="st2" d="M50.2,30.4c0,0-1.7-0.9-6.8-0.9s-9.1,3.3-9.1,3.3s-0.6,6.3,1.4,10.1c1.8,3.4,8.4,7.3,8.4,7.3s3.1-2.8,5.4-6.6
	C51.8,39.8,50.2,30.4,50.2,30.4z"/>
<g>
	<g>
		<g>
			<path class="st3" d="M45.2,35.2c-0.8,0-1.6,0.4-2.1,1.1c-0.5-0.7-1.3-1.1-2.1-1.1c-1.4,0-2.6,1.1-2.6,2.6c0,0.6,0.2,1.3,0.7,1.7
				c0,0,0,0,0,0l3.7,3.7c0.1,0.1,0.1,0.1,0.2,0.1s0.1,0,0.2-0.1l3.6-3.6c0.5-0.5,0.8-1.2,0.8-1.9C47.8,36.4,46.6,35.2,45.2,35.2z"/>
		</g>
	</g>
</g>
<path class="st1" d="M71.1,39.2c-0.1-0.1-0.3-0.2-0.5-0.1c-1.5,0.5-3.2-0.3-3.8-1.8c0-0.3,0-0.5,0.1-0.8c0.5-9.1-6.6-16.9-15.7-17.4
	c-3.5-0.2-6.8,0.8-9.6,2.5c-0.9-0.4-1.9-0.7-3-1c-4.3-0.9-8.7-0.2-12.5,2.2c-3.7,2.4-6.3,6.1-7.2,10.4c-0.9,4.3-0.2,8.7,2.2,12.5
	c0.1,0.2,0.3,0.5,0.5,0.7c0.2,1.6-0.8,3.1-2.4,3.4c-0.2,0-0.3,0.2-0.4,0.4c0,0.2,0,0.4,0.2,0.5c0.9,0.7,1.9,1,3,1
	c0.3,0,0.5,0,0.8-0.1c1-0.2,1.9-0.6,2.7-1.3c1.3,0.9,2.7,1.6,4.2,2.1c1.1,2.4,2.8,4.4,4.9,6.1c2.9,2.2,6.5,3.3,10,3.3
	c2.9,0,5.9-0.8,8.5-2.3c0.7,0.8,1.6,1.3,2.6,1.6c0.4,0.1,0.8,0.1,1.2,0.1c0.9,0,1.9-0.3,2.7-0.8c0.2-0.1,0.3-0.3,0.2-0.5
	c0-0.2-0.2-0.4-0.3-0.4c-1.5-0.5-2.5-2-2.1-3.6c0.2-0.2,0.3-0.4,0.5-0.6c1.6-2.1,2.6-4.4,3.1-6.9c1.9-1.5,3.4-3.5,4.5-5.8
	c0.4,0.1,0.8,0.2,1.2,0.2c0.6,0,1.2-0.1,1.8-0.3c1.3-0.5,2.3-1.4,2.9-2.7C71.2,39.6,71.2,39.4,71.1,39.2z M41.6,22.8
	c2.6,1.2,4.9,3.1,6.5,5.7c0.2,0.3,0.3,0.6,0.5,0.8c-4.5-1.1-9.4-0.3-13.3,2.4C36.3,28,38.6,24.8,41.6,22.8z M49.2,30.5
	c1.4,3,1.7,6.4,1,9.7c-0.9,3.9-3.2,7.3-6.5,9.5c-1.8-0.9-3.5-2.1-4.9-3.7c-2.8-3.1-4.2-7.1-4-11.2c0-0.6,0.1-1.2,0.2-1.7
	c2.1-1.7,4.7-2.8,7.4-3.2C44.8,29.6,47.1,29.8,49.2,30.5z M25.8,49.4C25.8,49.3,25.8,49.3,25.8,49.4C25.8,49.3,25.8,49.3,25.8,49.4
	c-0.3-0.2-0.6-0.2-0.8,0c-0.6,0.7-1.5,1.2-2.4,1.3c-0.8,0.1-1.5,0-2.2-0.3c1.5-0.8,2.4-2.5,2.1-4.2c0-0.1-0.1-0.2-0.1-0.2
	c0,0,0,0,0,0c-0.2-0.2-0.3-0.5-0.5-0.7c-4.6-7.2-2.5-16.9,4.7-21.5c4.3-2.7,9.4-3.1,13.9-1.4c-3.3,2.4-5.6,6-6.4,10.2
	c-1,0.8-1.9,1.7-2.7,2.8c-2.7,3.5-3.8,7.9-3.2,12.2c0.2,1.2,0.5,2.4,0.9,3.6C28,50.7,26.9,50.1,25.8,49.4z M29.2,47.5
	c-0.6-4.1,0.5-8.2,3-11.5c0.5-0.7,1.1-1.3,1.7-1.9c0,0.2-0.1,0.5-0.1,0.7c-0.2,4.4,1.3,8.6,4.2,11.9c1.4,1.5,2.9,2.7,4.7,3.6
	c-3.8,2.2-8.3,2.6-12.4,1.3C29.8,50.3,29.4,48.9,29.2,47.5z M57,54.7c-0.2,0.2-0.3,0.4-0.5,0.7c0,0,0,0,0,0
	c-0.1,0.1-0.1,0.1-0.1,0.2c-0.4,1.7,0.3,3.5,1.8,4.4c-0.7,0.2-1.5,0.3-2.2,0.1c-0.9-0.2-1.7-0.8-2.3-1.5c-0.2-0.2-0.5-0.3-0.7-0.1
	c0,0,0,0,0,0c0,0,0,0,0,0c-5.4,3.4-12.5,3-17.6-0.8c-1.8-1.3-3.2-3-4.2-4.9c1.3,0.3,2.7,0.5,4.1,0.5c3.1,0,6.1-0.8,8.8-2.5
	c1.8,0.8,3.7,1.2,5.6,1.3c0.3,0,0.6,0,0.8,0c3.4,0,6.6-1,9.3-2.9C59.1,51.2,58.2,53.1,57,54.7z M59.9,47.8
	c-2.9,2.3-6.6,3.5-10.4,3.3c-1.6-0.1-3.2-0.4-4.7-1c3.3-2.4,5.5-5.8,6.4-9.8c0.7-3.2,0.4-6.4-0.7-9.4c1.2,0.5,2.4,1.1,3.5,2
	c3.3,2.5,5.4,6.1,6,10.3C60.2,44.8,60.2,46.3,59.9,47.8z M68,41.5c-0.9,0.3-1.9,0.3-2.8,0c-0.3-0.1-0.5,0-0.6,0.3c0,0,0,0,0,0
	c0,0,0,0,0,0c-0.8,1.9-2.1,3.6-3.5,4.9c0.1-1.3,0.1-2.5-0.1-3.8c-0.6-4.4-2.9-8.3-6.4-10.9c-1.4-1.1-3-1.9-4.6-2.4
	c-0.3-0.6-0.6-1.2-1-1.8c-1.6-2.5-3.8-4.5-6.4-5.8c2.5-1.4,5.4-2.2,8.5-2c4.1,0.2,8,2,10.7,5.1c2.8,3.1,4.2,7.1,4,11.2
	c0,0.3,0,0.6-0.1,0.8c0,0,0,0,0,0c0,0.1,0,0.2,0,0.3c0.6,1.7,2.2,2.7,3.9,2.6C69.3,40.8,68.7,41.3,68,41.5z"/>
</svg>
