<?xml version="1.0" encoding="utf-8"?>
<!-- Generator: Adobe Illustrator 21.0.0, SVG Export Plug-In . SVG Version: 6.00 Build 0)  -->
<!DOCTYPE svg PUBLIC "-//W3C//DTD SVG 1.1//EN" "http://www.w3.org/Graphics/SVG/1.1/DTD/svg11.dtd">
<svg version="1.1" id="Layer_1" xmlns="http://www.w3.org/2000/svg" xmlns:xlink="http://www.w3.org/1999/xlink" x="0px" y="0px"
	 viewBox="0 0 103 81" style="enable-background:new 0 0 103 81;" xml:space="preserve">
<style type="text/css">
	.st0{fill:#212C41;}
	.st1{fill:#D6E4D2;}
</style>
<g id="insp-agen-icon_1_">
	<g>
		<rect x="51.7" y="9" class="st0" width="1.7" height="4.7"/>
	</g>
	<g>
		<rect x="55.3" y="9" class="st0" width="1.7" height="4.7"/>
	</g>
	<g>
		<rect x="59" y="9" class="st0" width="1.7" height="4.7"/>
	</g>
	<g>
		<rect x="51.7" y="15.7" class="st0" width="1.7" height="4.7"/>
	</g>
	<g>
		<rect x="55.3" y="15.7" class="st0" width="1.7" height="4.7"/>
	</g>
	<g>
		<rect x="59" y="15.7" class="st0" width="1.7" height="4.7"/>
	</g>
	<path class="st0" d="M57,77.8l-3.2-12.2l2.3-4.6c0.1-0.2,0.1-0.4,0-0.6c-0.1-0.2-0.3-0.3-0.5-0.3l-7.5,0c-0.2,0-0.4,0.1-0.5,0.3
		c-0.1,0.2-0.1,0.4,0,0.6l2.4,4.3L47,77.8H57z"/>
	<path class="st1" d="M102,73.1c0-7.6-5.1-14.1-12-16.2c4.4-1.9,7.6-6.3,7.6-11.4c0-6.8-5.6-12.4-12.4-12.4
		c-6.8,0-12.4,5.6-12.4,12.4c0,5.1,3.1,9.5,7.6,11.4c-3.8,1.1-7,3.6-9.1,6.8c-2.8-3.9-7.2-6.5-12.3-6.9c5.6-2.7,9.5-8.4,9.5-15
		c0-9.2-7.5-16.6-16.6-16.6s-16.6,7.5-16.6,16.6c0,6.6,3.9,12.3,9.5,15c-5,0.4-9.4,3-12.2,6.8c-2.2-3.1-5.3-5.5-9.1-6.7
		c4.4-1.9,7.6-6.3,7.6-11.4c0-6.8-5.6-12.4-12.4-12.4S6.2,38.7,6.2,45.6c0,5.1,3.1,9.5,7.6,11.4c-7,2.1-12,8.5-12,16.2v4.7h0v1.8
		H102v-1h0V73.1z M74.4,45.6c0-5.9,4.8-10.7,10.7-10.7c5.9,0,10.7,4.8,10.7,10.7S91,56.3,85.1,56.3C79.2,56.3,74.4,51.5,74.4,45.6z
		 M85.1,58c8.4,0,15.2,6.8,15.2,15.2v4.7H74.5v-3.9c0-3.1-0.9-6.1-2.3-8.6C74.9,60.9,79.6,58,85.1,58z M36.9,41.8
		c0-8.2,6.7-14.9,14.9-14.9s14.9,6.7,14.9,14.9c0,8.2-6.7,14.9-14.9,14.9S36.9,50,36.9,41.8z M46.2,58.4h11.2
		c8.5,0,15.4,6.9,15.4,15.4v3.9H30.8v-3.9C30.8,65.3,37.7,58.4,46.2,58.4z M7.9,45.6c0-5.9,4.8-10.7,10.7-10.7s10.7,4.8,10.7,10.7
		s-4.8,10.7-10.7,10.7S7.9,51.5,7.9,45.6z M3.4,73.1c0-8.4,6.8-15.2,15.2-15.2c5.4,0,10.2,2.9,12.9,7.2c-1.5,2.5-2.4,5.5-2.4,8.7
		v3.9H3.4V73.1z"/>
	<path class="st0" d="M45.3,20.4H43v-3.2c0-0.5-0.4-0.8-0.8-0.8h-12v-3.1c0-0.5-0.4-0.8-0.8-0.8c-0.5,0-0.8,0.4-0.8,0.8v3.1h-3.6v-3
		c0-0.5-0.4-0.8-0.8-0.8H11.5c-0.5,0-0.8,0.4-0.8,0.8v20.5c0.5-0.4,1.1-0.7,1.7-1V14.2h10.9v17.8l0,0.1c0,0,0,0,0,0v0
		c0.5,0.2,0.9,0.4,1.3,0.6c1.5,0.7,2.6,1.5,3.3,2.1c0.2,0.2,0.5,0.4,0.7,0.7v-6.7H37V31c0.5-0.7,1.1-1.4,1.7-2v-6.9h5.7v3
		c0.6-0.2,1.1-0.5,1.7-0.6v-3.2C46.2,20.8,45.8,20.4,45.3,20.4z"/>
	<path class="st0" d="M92,24.6h-3.3v-3c0-0.5-0.4-0.8-0.8-0.8c-0.5,0-0.8,0.4-0.8,0.8v3h-4.3V13.4c0-0.5-0.4-0.8-0.8-0.8H64.7V6.2
		c0-0.5-0.4-0.8-0.8-0.8h-3.3V1.8c0-0.5-0.4-0.8-0.8-0.8s-0.8,0.4-0.8,0.8v3.5h-10c-0.5,0-0.8,0.4-0.8,0.8v17.6
		c0.6-0.1,1.1-0.2,1.7-0.3V7H63v14.8h-3.9c-0.5,0-0.8,0.4-0.8,0.8v2.1c0.6,0.2,1.1,0.5,1.7,0.8v-2h11.4V41l0,0.4c0,0,0,0,0-0.1v0.1
		c0.2-0.5,0.4-1,0.6-1.5c2.6-5.5,8.1-7.6,8.1-7.6l0,0c0,0,0,0,0,0v-6h11.2V33c0.6,0.3,1.2,0.6,1.7,1v-8.5C92.9,25,92.5,24.6,92,24.6
		z"/>
</g>
</svg>
