<?xml version="1.0" encoding="utf-8"?>
<!-- Generator: Adobe Illustrator 21.0.0, SVG Export Plug-In . SVG Version: 6.00 Build 0)  -->
<!DOCTYPE svg PUBLIC "-//W3C//DTD SVG 1.1//EN" "http://www.w3.org/Graphics/SVG/1.1/DTD/svg11.dtd">
<svg version="1.1" id="Layer_1" xmlns="http://www.w3.org/2000/svg" xmlns:xlink="http://www.w3.org/1999/xlink" x="0px" y="0px"
	 viewBox="0 0 142 67" style="enable-background:new 0 0 142 67;" xml:space="preserve">
<style type="text/css">
	.st0{fill:#D5E4D2;}
	.st1{fill:#212C41;}
</style>
<rect x="130.6" y="33.1" class="st0" width="10.8" height="2.7"/>
<rect x="5.7" y="40.9" class="st0" width="7.6" height="2.7"/>
<rect x="128.8" y="18" class="st0" width="3.9" height="2.7"/>
<rect x="0.6" y="25.6" class="st0" width="14.4" height="2.7"/>
<rect x="10.6" y="48.6" class="st0" width="13.4" height="2.7"/>
<rect x="116.5" y="48.6" class="st0" width="8.6" height="2.7"/>
<rect x="17.2" y="40.7" class="st0" width="6.8" height="2.7"/>
<rect x="116.5" y="40.7" class="st0" width="15.6" height="2.7"/>
<rect x="13" y="33.1" class="st0" width="11" height="2.7"/>
<rect x="116.5" y="33.1" class="st0" width="10" height="2.7"/>
<rect x="116.5" y="25.6" class="st0" width="20.5" height="2.7"/>
<rect x="18.7" y="25.6" class="st0" width="5.4" height="2.7"/>
<rect x="9.7" y="18.7" class="st0" width="14.4" height="2.7"/>
<rect x="116.5" y="18.2" class="st0" width="8.6" height="2.7"/>
<g>
	<path class="st0" d="M101.2,39.9H73.9c-0.2,0-0.4-0.2-0.4-0.5s0.2-0.5,0.4-0.5h27.3c0.2,0,0.4,0.2,0.4,0.5S101.4,39.9,101.2,39.9z"
		/>
</g>
<g>
	<path class="st0" d="M101.2,45.5H73.9c-0.2,0-0.4-0.2-0.4-0.5s0.2-0.5,0.4-0.5h27.3c0.2,0,0.4,0.2,0.4,0.5S101.4,45.5,101.2,45.5z"
		/>
</g>
<g>
	<path class="st0" d="M101.2,51.1H73.9c-0.2,0-0.4-0.2-0.4-0.5s0.2-0.5,0.4-0.5h27.3c0.2,0,0.4,0.2,0.4,0.5S101.4,51.1,101.2,51.1z"
		/>
</g>
<path class="st1" d="M120.5,58.6h-2.8v-1.2c0-0.3-0.2-0.5-0.5-0.5h-4.1V1H26.7v55.8h-5.6c-0.3,0-0.5,0.2-0.5,0.5v1.2h-2.5
	c-0.3,0-0.5,0.2-0.5,0.5v5.8c0,0.3,0.2,0.5,0.5,0.5h102.4c0.3,0,0.5-0.2,0.5-0.5v-5.8C121,58.8,120.8,58.6,120.5,58.6z M31,5.5h78.3
	V56H31V5.5z M120.1,64.3H18.6v-4.8h101.5V64.3z"/>
<rect x="74.7" y="1.3" class="st1" width="2.4" height="3.4"/>
<g>
	<path class="st0" d="M67.6,50.8H37.2c-0.3,0-0.5-0.2-0.5-0.5V11c0-0.3,0.2-0.5,0.5-0.5h30.4c0.3,0,0.5,0.2,0.5,0.5v39.3
		C68.1,50.6,67.9,50.8,67.6,50.8z M37.7,49.8h29.4V11.5H37.7V49.8z"/>
</g>
<path class="st1" d="M60.2,18.9c-2-2-4.5-3-7.3-3c-2.8,0-5.5,1.1-7.5,3.1c-1.9,1.9-2.9,4.5-2.8,7.2c0.1,5,3.5,7.3,5.1,8.4
	c0.3,0.2,0.6,0.4,0.7,0.5c0.9,0.8,1,1.7,1,2.2c-0.3,0-0.5,0.2-0.5,0.5v5.1c0,0.3,0.2,0.5,0.5,0.5h7.4c0.3,0,0.5-0.2,0.5-0.5v-5.1
	c0-0.3-0.2-0.5-0.5-0.5h-0.1c0-0.5,0-1.3,0.8-2.1c0.1-0.1,0.4-0.3,0.8-0.6c1.7-1.2,4.9-3.4,5-8.4C63.2,23.4,62.1,20.8,60.2,18.9z
	 M49.9,38.3c0,0,0.1,0,0.1,0c0,0,0,0,0.1,0h6.2v1.6h-6.4V38.3z M49.9,42.3v-1.5h6.4v1.5H49.9z M57.6,33.7c-0.4,0.3-0.7,0.5-0.9,0.7
	c-0.4,0.5-0.7,0.9-0.8,1.4h-1.3V26c0,0,0,0,0,0l0,0c0-0.7,0.6-1.3,1.3-1.3s1.3,0.6,1.3,1.3c0,0.7-0.6,1.3-1.3,1.3
	c-0.3,0-0.5,0.2-0.5,0.5s0.2,0.5,0.5,0.5c1.3,0,2.3-1,2.3-2.3c0-1.3-1-2.3-2.3-2.3s-2.3,1-2.3,2.3c0,0,0,0,0,0l0,0v9.8h-1.2V26l0,0
	c0,0,0,0,0,0c0-1.3-1-2.3-2.3-2.3s-2.3,1-2.3,2.3c0,1.3,1,2.3,2.3,2.3c0.3,0,0.5-0.2,0.5-0.5s-0.2-0.5-0.5-0.5
	c-0.7,0-1.3-0.6-1.3-1.3c0-0.7,0.6-1.3,1.3-1.3s1.3,0.6,1.3,1.3l0,0c0,0,0,0,0,0v9.8h-1.3c-0.2-0.5-0.5-1-1-1.5
	c-0.2-0.2-0.5-0.4-0.8-0.6c-1.6-1.1-4.6-3.1-4.7-7.6c-0.1-2.4,0.8-4.7,2.6-6.4c1.8-1.8,4.2-2.8,6.7-2.8c2.5,0,4.8,1,6.6,2.7
	c1.7,1.8,2.7,4.1,2.7,6.6C62.1,30.6,59.2,32.6,57.6,33.7z"/>
<path class="st1" d="M90.9,19.7l-5.2-2.8c-0.2-0.1-0.3-0.1-0.5,0C85.1,17,85,17.2,85,17.3v5.6c0,0.2,0.1,0.3,0.2,0.4
	c0.1,0,0.2,0.1,0.3,0.1c0.1,0,0.2,0,0.2-0.1l5.2-2.8c0.2-0.1,0.3-0.3,0.3-0.4S91.1,19.8,90.9,19.7z"/>
<path class="st0" d="M101.6,10.6H73.8c-0.2,0-0.4,0.2-0.4,0.5v22.3c0,0.3,0.2,0.5,0.4,0.5h27.8c0.2,0,0.4-0.2,0.4-0.5V11.1
	C102,10.8,101.8,10.6,101.6,10.6z M101.3,11.6v17H74.2v-17H101.3z M74.2,32.9v-3.3h27.1v3.3H74.2z"/>
</svg>
