<?xml version="1.0" encoding="utf-8"?>
<!-- Generator: Adobe Illustrator 21.0.0, SVG Export Plug-In . SVG Version: 6.00 Build 0)  -->
<!DOCTYPE svg PUBLIC "-//W3C//DTD SVG 1.1//EN" "http://www.w3.org/Graphics/SVG/1.1/DTD/svg11.dtd">
<svg version="1.1" id="Layer_1" xmlns="http://www.w3.org/2000/svg" xmlns:xlink="http://www.w3.org/1999/xlink" x="0px" y="0px"
	 viewBox="0 0 89.4 90.4" style="enable-background:new 0 0 89.4 90.4;" xml:space="preserve">
<style type="text/css">
	.st0{fill:#DFEDF4;}
	.st1{fill:#DA865B;}
	.st2{fill:#212C41;}
	.st3{fill:none;stroke:#212C41;stroke-linecap:round;stroke-linejoin:round;stroke-miterlimit:10;}
</style>
<g>
	<g>
		<g>
			<circle class="st0" cx="44.8" cy="45.2" r="44.3"/>
		</g>
	</g>
</g>
<g>
	<g>
		<g>
			<path class="st1" d="M50.7,44.5c0,0-5.2-3.3-6.8-2.2c-1.5,1.2-10.9,5.5-10.9,5.5s-1.1-0.2,0.7,2.9c1.9,3.1,8.1,12.9,8.1,12.9
				s-5,2-4.7,5.5l16.4-0.2c0,0,0.1-3.1-4.4-5c0,0,0.2-2.1,2.5-4.9c2.2-2.8,5.5-8.2,5.9-9c0.5-0.8,1.7-1.3-0.6-2.4
				C54.6,46.4,50.7,44.5,50.7,44.5z"/>
		</g>
	</g>
</g>
<g>
	<g>
		<g>
			<path class="st2" d="M25.5,46.4c-0.1,0-0.2,0-0.2-0.1l-4.1-2.3L17,46.4c-0.2,0.1-0.4,0.1-0.5,0c-0.2-0.1-0.2-0.3-0.2-0.5l0.9-4.6
				l-3.5-3.2c-0.1-0.1-0.2-0.3-0.1-0.5c0.1-0.2,0.2-0.3,0.4-0.3l4.7-0.5l2-4.3c0.2-0.4,0.7-0.4,0.9,0l2,4.3l4.7,0.5
				c0.2,0,0.4,0.2,0.4,0.3c0.1,0.2,0,0.4-0.1,0.5L25,41.2l0.9,4.6c0,0.2,0,0.4-0.2,0.5C25.7,46.4,25.6,46.4,25.5,46.4z M21.1,43
				c0.1,0,0.2,0,0.2,0.1l3.4,1.9L24,41.2c0-0.2,0-0.3,0.2-0.5l2.9-2.6l-3.9-0.5c-0.2,0-0.3-0.1-0.4-0.3l-1.6-3.5l-1.6,3.5
				c-0.1,0.2-0.2,0.3-0.4,0.3l-3.9,0.5l2.9,2.6c0.1,0.1,0.2,0.3,0.2,0.5L17.5,45l3.4-1.9C21,43,21.1,43,21.1,43z"/>
		</g>
	</g>
</g>
<g>
	<g>
		<g>
			<path class="st2" d="M74,46.4c-0.1,0-0.2,0-0.2-0.1l-4.1-2.3l-4.1,2.3c-0.2,0.1-0.4,0.1-0.5,0c-0.2-0.1-0.2-0.3-0.2-0.5l0.9-4.6
				l-3.5-3.2c-0.1-0.1-0.2-0.3-0.1-0.5c0.1-0.2,0.2-0.3,0.4-0.3l4.7-0.5l2-4.3c0.2-0.4,0.7-0.4,0.9,0l2,4.3l4.7,0.5
				c0.2,0,0.4,0.2,0.4,0.3c0.1,0.2,0,0.4-0.1,0.5l-3.5,3.2l0.9,4.6c0,0.2,0,0.4-0.2,0.5C74.2,46.4,74.1,46.4,74,46.4z M69.7,43
				c0.1,0,0.2,0,0.2,0.1l3.4,1.9l-0.8-3.8c0-0.2,0-0.3,0.2-0.5l2.9-2.6l-3.9-0.5c-0.2,0-0.3-0.1-0.4-0.3l-1.6-3.5L68,37.3
				c-0.1,0.2-0.2,0.3-0.4,0.3l-3.9,0.5l2.9,2.6c0.1,0.1,0.2,0.3,0.2,0.5L66,45l3.4-1.9C69.5,43,69.6,43,69.7,43z"/>
		</g>
	</g>
</g>
<g>
	<g>
		<g>
			<path class="st2" d="M41,66.8c-0.1,0-0.3,0-0.4-0.1c-0.2-0.2-0.2-0.5,0-0.7c1-1,2.3-1.7,3.7-1.8c0.3,0,0.5,0.2,0.6,0.4
				c0,0.3-0.2,0.5-0.4,0.6c-1.2,0.2-2.3,0.7-3.2,1.6C41.2,66.7,41.1,66.8,41,66.8z"/>
		</g>
	</g>
</g>
<path class="st2" d="M66.8,26.9c0.2-0.1,0.2-0.3,0.2-0.5c-0.1-0.2-0.2-0.3-0.4-0.4L52,24.5l-6.1-11.7c-0.2-0.3-0.7-0.3-0.9,0
	l-6.1,11.7L24.3,26c-0.2,0-0.4,0.2-0.4,0.4c-0.1,0.2,0,0.4,0.2,0.5l10.8,8.7l-2.9,12.5c0,0.2,0,0.4,0.2,0.5c0,0,0,0,0.1,0l9.2,14.7
	c-2,1-3.6,2.6-4.5,4.6h-2.9c-0.3,0-0.5,0.2-0.5,0.5v2c0,0.3,0.2,0.5,0.5,0.5h22.5c0.3,0,0.5-0.2,0.5-0.5v-2c0-0.3-0.2-0.5-0.5-0.5
	H54c-0.9-2-2.5-3.6-4.4-4.6l9.3-14.9c0.1-0.2,0.1-0.3,0-0.5l-2.8-12.4L66.8,26.9z M33.1,48.4l5-2.5l4.9,16.7
	c-0.3,0.1-0.6,0.2-0.9,0.3L33.1,48.4z M45.9,62.3V42.6l5.8,2.9l-4.7,17C46.7,62.4,46.3,62.4,45.9,62.3z M44.9,62.3
	c-0.3,0-0.6,0-0.8,0.1l-5-17l5.8-2.9V62.3z M52.9,67.9h-15c1.5-2.8,4.3-4.6,7.5-4.6C48.5,63.3,51.4,65.1,52.9,67.9z M48,62.7
	l4.6-16.8l5.1,2.5l-9.1,14.5C48.5,62.9,48.2,62.8,48,62.7z M57.7,47.3l-12.1-6c-0.1,0-0.1-0.1-0.2-0.1s-0.2,0-0.2,0.1l-12.1,6
	l2.7-11.8c0-0.2,0-0.4-0.2-0.5l-10.1-8.1l13.7-1.4c0.2,0,0.3-0.1,0.4-0.3l5.8-11.1l5.8,11.1c0.1,0.1,0.2,0.2,0.4,0.3l13.7,1.4
	L55.2,35C55,35.1,55,35.3,55,35.5L57.7,47.3z"/>
</svg>
