<?xml version="1.0" encoding="utf-8"?>
<!-- Generator: Adobe Illustrator 21.0.0, SVG Export Plug-In . SVG Version: 6.00 Build 0)  -->
<!DOCTYPE svg PUBLIC "-//W3C//DTD SVG 1.1//EN" "http://www.w3.org/Graphics/SVG/1.1/DTD/svg11.dtd">
<svg version="1.1" id="Layer_1" xmlns="http://www.w3.org/2000/svg" xmlns:xlink="http://www.w3.org/1999/xlink" x="0px" y="0px"
	 viewBox="0 0 89.4 90.4" style="enable-background:new 0 0 89.4 90.4;" xml:space="preserve">
<style type="text/css">
	.st0{fill:#DFEDF4;}
	.st1{fill:#DA865B;}
	.st2{fill:#212C41;}
	.st3{fill:#D0E5EE;}
</style>
<g>
	<g>
		<g>
			<circle class="st0" cx="44.8" cy="45.2" r="44.3"/>
		</g>
	</g>
</g>
<g>
	<g>
		<g>
			<g>
				<polygon class="st1" points="38,39.4 37.1,38.5 39.1,34 49.8,34 				"/>
			</g>
		</g>
	</g>
	<path class="st1" d="M61.7,64.4c-0.3,0-0.7,0-1,0V53.2H26v10.7c-3.6,0.7-5.9,1.8-5.9,3.1c0,2.1,5.9,3.7,13.2,3.7
		c1.5,0,2.9-0.1,4.2-0.2c1.3,0.8,4.2,1.4,7.7,1.4c4.6,0,8.4-1.1,8.4-2.4c0-1.2-3.1-2.2-7.1-2.3c0-0.1,0-0.2,0-0.2
		c0-0.5-0.4-1.1-1.1-1.5h9.9c-0.2,0.2-0.3,0.3-0.3,0.5c0,0.9,3,1.6,6.7,1.6c3.7,0,6.7-0.7,6.7-1.6S65.4,64.4,61.7,64.4z"/>
	<path class="st2" d="M60.5,47.9h-2.7v-0.8h0.6c0.4,0,0.7-0.3,0.7-0.7v-3.9c0-0.4-0.3-0.7-0.7-0.7H28.5c-0.4,0-0.7,0.3-0.7,0.7v3.9
		c0,0.4,0.3,0.7,0.7,0.7h0.9v0.8h-3c-0.4,0-0.7,0.3-0.7,0.7v16.5c0,0.4,0.3,0.7,0.7,0.7h34c0.4,0,0.7-0.3,0.7-0.7V48.6
		C61.2,48.2,60.9,47.9,60.5,47.9z M28.8,42.7h29.3v3.4H28.8V42.7z M60.2,64.8H26.7v-16h33.5V64.8z"/>
	<path class="st2" d="M61.2,24.6l-9.4-9.4c-0.1-0.1-0.3-0.2-0.5-0.1c-0.2,0-0.3,0.2-0.4,0.3L50,18.3l-5.6,2.7
		c-0.1,0.1-0.2,0.1-0.2,0.2l-7.5,17.1c-0.1,0.2,0,0.4,0.1,0.6l0.8,0.8c0.1,0.1,0.2,0.1,0.4,0.1c0.1,0,0.1,0,0.2,0l17.2-7.5
		c0.1,0,0.2-0.1,0.2-0.2l2.7-5.5l2.8-1.1c0.2-0.1,0.3-0.2,0.3-0.4C61.4,24.9,61.3,24.7,61.2,24.6z M54.7,31.4l-16,7l9.9-9.9
		c0.2,0.1,0.5,0.2,0.8,0.2c0.4,0,0.9-0.2,1.2-0.5c0.3-0.3,0.5-0.8,0.5-1.2c0-0.5-0.2-0.9-0.5-1.2c-0.7-0.7-1.7-0.7-2.4,0
		c-0.5,0.5-0.6,1.4-0.3,2L38,37.7l7-15.9l5.2-2.5l7,7L54.7,31.4z M48.9,26.5c0.1-0.1,0.3-0.2,0.5-0.2s0.4,0.1,0.5,0.2
		c0.1,0.1,0.2,0.3,0.2,0.5s-0.1,0.4-0.2,0.5c-0.3,0.3-0.7,0.3-1,0C48.6,27.2,48.6,26.8,48.9,26.5z M58,25.5L51,18.4l0.7-1.9l8.3,8.3
		L58,25.5z"/>
	<polygon class="st2" points="44.7,17.4 41.3,17.4 41.3,14 40.3,14 40.3,17.4 36.9,17.4 36.9,18.4 40.3,18.4 40.3,21.7 41.3,21.7 
		41.3,18.4 44.7,18.4 	"/>
	<g>
		<g>
			<g>
				<path class="st3" d="M35.5,59.5c0,0.1,0,0.3-0.1,0.5c-0.1,0.2-0.2,0.3-0.3,0.5c-0.2,0.2-0.3,0.3-0.6,0.4
					c-0.2,0.1-0.5,0.2-0.8,0.2c-0.2,0-0.5,0-0.6-0.1c-0.2,0-0.4-0.1-0.5-0.2c-0.2-0.1-0.3-0.2-0.4-0.4c-0.1-0.1-0.2-0.3-0.3-0.5
					c-0.1-0.2-0.1-0.4-0.2-0.6c0-0.2-0.1-0.4-0.1-0.6c0-0.4,0.1-0.7,0.2-1c0.1-0.3,0.3-0.5,0.5-0.7c0.2-0.2,0.4-0.4,0.7-0.5
					c0.3-0.1,0.5-0.2,0.8-0.2c0.4,0,0.7,0.1,1,0.2c0.3,0.1,0.5,0.3,0.7,0.5c0.2,0.2,0.2,0.4,0.2,0.6c0,0.1,0,0.2-0.1,0.3
					c-0.1,0.1-0.2,0.1-0.3,0.1c-0.1,0-0.2,0-0.3-0.1c-0.1-0.1-0.1-0.2-0.2-0.3c-0.1-0.2-0.3-0.4-0.4-0.5c-0.2-0.1-0.4-0.2-0.6-0.2
					c-0.4,0-0.7,0.1-0.9,0.4c-0.2,0.3-0.3,0.7-0.3,1.2c0,0.3,0,0.6,0.1,0.9c0.1,0.2,0.2,0.4,0.4,0.5c0.2,0.1,0.4,0.2,0.6,0.2
					c0.3,0,0.5-0.1,0.7-0.2c0.2-0.1,0.3-0.3,0.4-0.6c0-0.1,0.1-0.2,0.1-0.3s0.1-0.1,0.3-0.1c0.1,0,0.2,0,0.3,0.1
					C35.5,59.2,35.5,59.3,35.5,59.5z"/>
			</g>
		</g>
		<g>
			<g>
				<path class="st3" d="M39.7,60.2L39,57.3v3.1c0,0.2,0,0.3-0.1,0.4c-0.1,0.1-0.2,0.1-0.3,0.1c-0.1,0-0.2,0-0.3-0.1
					c-0.1-0.1-0.1-0.2-0.1-0.4v-3.6c0-0.2,0.1-0.3,0.2-0.4c0.1-0.1,0.2-0.1,0.4-0.1H39c0.2,0,0.3,0,0.4,0c0.1,0,0.1,0.1,0.2,0.2
					c0,0.1,0.1,0.2,0.1,0.4l0.7,2.5L41,57c0-0.2,0.1-0.3,0.1-0.4c0-0.1,0.1-0.1,0.2-0.2c0.1,0,0.2,0,0.4,0h0.3c0.2,0,0.3,0,0.4,0.1
					c0.1,0.1,0.2,0.2,0.2,0.4v3.6c0,0.2,0,0.3-0.1,0.4c-0.1,0.1-0.2,0.1-0.3,0.1c-0.1,0-0.2,0-0.3-0.1c-0.1-0.1-0.1-0.2-0.1-0.4
					v-3.1L41,60.2c0,0.2-0.1,0.3-0.1,0.4c0,0.1-0.1,0.2-0.2,0.2c-0.1,0.1-0.2,0.1-0.3,0.1c-0.1,0-0.2,0-0.3-0.1
					c-0.1,0-0.1-0.1-0.2-0.2c0-0.1-0.1-0.2-0.1-0.2C39.8,60.4,39.8,60.3,39.7,60.2z"/>
			</g>
		</g>
		<g>
			<g>
				<path class="st3" d="M46.3,60.4V59l-1.1-1.7c-0.1-0.2-0.2-0.3-0.2-0.4c0-0.1-0.1-0.2-0.1-0.2c0-0.1,0-0.2,0.1-0.3
					c0.1-0.1,0.2-0.1,0.3-0.1c0.1,0,0.2,0,0.3,0.1c0.1,0.1,0.2,0.2,0.3,0.4l0.8,1.4l0.8-1.4c0.1-0.1,0.1-0.2,0.1-0.2
					c0-0.1,0.1-0.1,0.1-0.2c0-0.1,0.1-0.1,0.1-0.1c0.1,0,0.1,0,0.2,0c0.1,0,0.2,0,0.3,0.1c0.1,0.1,0.1,0.2,0.1,0.3
					c0,0.1,0,0.2-0.1,0.2s-0.1,0.2-0.2,0.3L47.2,59v1.4c0,0.2,0,0.3-0.1,0.4s-0.2,0.1-0.3,0.1c-0.1,0-0.2,0-0.3-0.1
					C46.4,60.7,46.3,60.6,46.3,60.4z"/>
			</g>
		</g>
		<g>
			<g>
				<path class="st3" d="M52.1,56.9v1.6l1.8-1.9c0.1-0.1,0.2-0.2,0.2-0.2c0.1,0,0.1-0.1,0.2-0.1c0.1,0,0.2,0,0.3,0.1
					c0.1,0.1,0.1,0.2,0.1,0.3c0,0.1-0.1,0.3-0.2,0.4l-1.1,1l1.3,1.8c0.1,0.1,0.2,0.2,0.2,0.3c0,0.1,0.1,0.2,0.1,0.3
					c0,0.1,0,0.2-0.1,0.3c-0.1,0.1-0.2,0.1-0.3,0.1c-0.1,0-0.2,0-0.3-0.1c-0.1-0.1-0.1-0.1-0.2-0.2c-0.1-0.1-0.1-0.2-0.1-0.2
					l-1.1-1.7l-0.7,0.7v0.9c0,0.2,0,0.3-0.1,0.4c-0.1,0.1-0.2,0.1-0.3,0.1c-0.1,0-0.2,0-0.2-0.1c-0.1,0-0.1-0.1-0.2-0.2
					c0-0.1,0-0.1-0.1-0.2c0-0.1,0-0.2,0-0.3v-3.3c0-0.2,0-0.3,0.1-0.4c0.1-0.1,0.2-0.1,0.3-0.1c0.1,0,0.2,0,0.3,0.1
					C52,56.5,52.1,56.7,52.1,56.9z"/>
			</g>
		</g>
	</g>
</g>
</svg>
