<?xml version="1.0" encoding="utf-8"?>
<!-- Generator: Adobe Illustrator 21.0.0, SVG Export Plug-In . SVG Version: 6.00 Build 0)  -->
<!DOCTYPE svg PUBLIC "-//W3C//DTD SVG 1.1//EN" "http://www.w3.org/Graphics/SVG/1.1/DTD/svg11.dtd">
<svg version="1.1" id="Layer_1" xmlns="http://www.w3.org/2000/svg" xmlns:xlink="http://www.w3.org/1999/xlink" x="0px" y="0px"
	 viewBox="0 0 89.4 90.4" style="enable-background:new 0 0 89.4 90.4;" xml:space="preserve">
<style type="text/css">
	.st0{fill:#DFEDF4;}
	.st1{fill:#DA865B;}
	.st2{fill:#D0E5EE;}
	.st3{fill:#212C41;}
</style>
<g>
	<g>
		<g>
			<circle class="st0" cx="44.8" cy="45.2" r="44.3"/>
		</g>
	</g>
</g>
<g>
	<g>
		<g>
			<circle class="st1" cx="44.9" cy="40.7" r="7.4"/>
		</g>
	</g>
</g>
<path class="st2" d="M47.9,39.9c0-0.1-0.1-0.2-0.2-0.2L46,39.4l-0.8-1.6c-0.1-0.1-0.2-0.2-0.3-0.2s-0.2,0.1-0.3,0.2l-0.8,1.6
	l-1.7,0.2c-0.1,0-0.2,0.1-0.2,0.2s0,0.2,0.1,0.3l1.2,1.2l-0.3,1.7c0,0.1,0,0.2,0.1,0.3c0.1,0.1,0.2,0.1,0.3,0l1.5-0.8l1.5,0.8
	c0,0,0.1,0,0.1,0c0.1,0,0.1,0,0.2-0.1c0.1-0.1,0.1-0.2,0.1-0.3l-0.3-1.7l1.2-1.2C47.9,40.1,47.9,40,47.9,39.9z"/>
<g>
	<g>
		<rect x="37.5" y="62.8" class="st1" width="14.9" height="4.6"/>
	</g>
</g>
<g>
	<g>
		<rect x="37.5" y="69.8" class="st1" width="14.9" height="3.1"/>
	</g>
</g>
<path class="st3" d="M28.9,32.6c0.1,0,0.2,0.1,0.2,0.1c0.2,0,0.3-0.1,0.4-0.3c1.8-3.3,4.5-5.9,7.7-7.5l2.2,3.9c0,0,0,0,0,0
	c0,0.1,0,0.1,0,0.2c0.1,0.3,0.4,0.4,0.6,0.3c1.5-0.6,3.1-1,4.8-1c2.9,0,5.7,1,7.9,2.9c0.1,0.1,0.2,0.1,0.3,0.1
	c0.1,0,0.3-0.1,0.4-0.2c0.2-0.2,0.2-0.5-0.1-0.7c-2.4-2-5.4-3.1-8.5-3.1c-1.6,0-3.2,0.3-4.7,0.9l-2.1-3.7c2.1-0.9,4.4-1.4,6.8-1.4
	c1.1,0,2.3,0.1,3.4,0.3c0.3,0.1,0.5-0.1,0.6-0.4c0.1-0.3-0.1-0.5-0.4-0.6c-1.2-0.2-2.4-0.3-3.6-0.3c-6.8,0-13.1,3.7-16.3,9.8
	C28.6,32.2,28.7,32.5,28.9,32.6z"/>
<path class="st3" d="M53,24c-0.2-0.1-0.5,0-0.7,0.2c-0.1,0.2,0,0.5,0.2,0.7c6,2.9,9.9,9.1,9.9,15.8c0,0.3,0.2,0.5,0.5,0.5
	c0.3,0,0.5-0.2,0.5-0.5C63.5,33.6,59.3,27,53,24z"/>
<g>
	<g>
		<g>
			<path class="st1" d="M68.5,58.1c0,0-0.1,0-0.1,0l-7-2c-0.3-0.1-0.4-0.3-0.3-0.6s0.3-0.4,0.6-0.3l7,2c0.3,0.1,0.4,0.3,0.3,0.6
				C69,58,68.8,58.1,68.5,58.1z"/>
		</g>
	</g>
</g>
<g>
	<g>
		<g>
			<path class="st1" d="M60.8,62.8c-0.1,0-0.3,0-0.3-0.1l-3-2.9c-0.2-0.2-0.2-0.5,0-0.7c0.2-0.2,0.5-0.2,0.7,0l3,2.9
				c0.2,0.2,0.2,0.5,0,0.7C61.1,62.7,61,62.8,60.8,62.8z"/>
		</g>
	</g>
</g>
<g>
	<g>
		<g>
			<path class="st1" d="M64.1,51.6c-0.3,0-0.5-0.2-0.5-0.5c0-0.3,0.2-0.5,0.5-0.5l4.2-0.1c0.2,0,0.5,0.2,0.5,0.5
				c0,0.3-0.2,0.5-0.5,0.5L64.1,51.6C64.1,51.6,64.1,51.6,64.1,51.6z"/>
		</g>
	</g>
</g>
<g>
	<g>
		<g>
			<path class="st1" d="M20.7,58.1c-0.2,0-0.4-0.1-0.5-0.4c-0.1-0.3,0.1-0.5,0.3-0.6l7-2c0.3-0.1,0.5,0.1,0.6,0.3s-0.1,0.5-0.3,0.6
				l-7,2C20.8,58.1,20.7,58.1,20.7,58.1z"/>
		</g>
	</g>
</g>
<g>
	<g>
		<g>
			<path class="st1" d="M28.4,62.8c-0.1,0-0.3,0-0.4-0.1c-0.2-0.2-0.2-0.5,0-0.7l3-2.9c0.2-0.2,0.5-0.2,0.7,0c0.2,0.2,0.2,0.5,0,0.7
				l-3,2.9C28.7,62.7,28.5,62.8,28.4,62.8z"/>
		</g>
	</g>
</g>
<g>
	<g>
		<g>
			<path class="st1" d="M25.1,51.6C25.1,51.6,25.1,51.6,25.1,51.6l-4.2-0.1c-0.3,0-0.5-0.2-0.5-0.5c0-0.3,0.2-0.5,0.5-0.5l4.2,0.1
				c0.3,0,0.5,0.2,0.5,0.5C25.6,51.4,25.4,51.6,25.1,51.6z"/>
		</g>
	</g>
</g>
<path class="st3" d="M62.2,45.8c-0.3-0.1-0.5,0.1-0.6,0.3c-0.9,2.8-2.5,5.3-4.5,7.1c-3.6,3.3-5.1,4.9-5.1,6.1v2.9H38v-2.9
	c0-1-1.7-3.1-5.1-6.1c-1.5-1.4-3.2-3.9-4.2-6.8l3.8-1.4c1.8,5.1,6.7,8.8,12.5,8.8c2.8,0,5.6-0.9,7.9-2.6c0.2-0.2,0.3-0.5,0.1-0.7
	c-0.2-0.2-0.5-0.3-0.7-0.1c-2.1,1.6-4.6,2.4-7.3,2.4c-2.3,0-4.4-0.6-6.2-1.7l2.4-3.5c1.2,0.6,2.5,1,3.8,1c4.4,0,8.1-3.6,8.1-8.1
	c0-1-0.2-2-0.6-2.9l3.5-2.4c0.8,1.7,1.3,3.5,1.3,5.4c0,2.3-0.7,4.6-1.9,6.6c-0.1,0.2-0.1,0.5,0.2,0.7c0.1,0.1,0.2,0.1,0.3,0.1
	c0.2,0,0.3-0.1,0.4-0.2c1.4-2.1,2.1-4.6,2.1-7.1c0-2.1-0.5-4.2-1.5-6.1c0-0.1-0.1-0.1-0.1-0.2c0,0,0-0.1-0.1-0.1
	c-0.2-0.2-0.5-0.3-0.7-0.1l-3.8,2.7c-1.4-2.5-4-4.2-7.1-4.2c-3.8,0-7,2.5-7.8,6.2c-0.1,0.3,0.1,0.5,0.4,0.6c0.3,0.1,0.5-0.1,0.6-0.4
	c0.8-3.2,3.6-5.4,6.9-5.4c3.9,0,7.1,3.2,7.1,7.1s-3.2,7.1-7.1,7.1c-2.9,0-5.6-1.8-6.6-4.6c-0.1-0.3-0.4-0.4-0.6-0.3
	c-0.3,0.1-0.4,0.4-0.3,0.6c0.6,1.5,1.6,2.8,2.9,3.7L38,50.7c-3.2-2.2-5.2-5.9-5.2-10c0-3.2,1.2-6.2,3.4-8.5c0.2-0.2,0.2-0.5,0-0.7
	c-0.2-0.2-0.5-0.2-0.7,0c-2.4,2.5-3.7,5.8-3.7,9.2c0,1.2,0.2,2.4,0.5,3.5l-3.9,1.4c-0.5-1.6-0.8-3.3-0.8-4.9c0-1.5,0.2-2.9,0.5-4.3
	c0.1-0.3-0.1-0.5-0.4-0.6c-0.3-0.1-0.5,0.1-0.6,0.4c-0.4,1.5-0.6,3-0.6,4.5c0,5.1,2.9,10.8,5.7,13.3c3.8,3.4,4.8,5,4.8,5.4v3.2
	c0,0,0,0.1,0,0.1c0,0,0,0.1,0,0.1v4.6c0,0.3,0.2,0.5,0.5,0.5h0.6v1.4h-0.6c-0.3,0-0.5,0.2-0.5,0.5v3.1c0,0.3,0.2,0.5,0.5,0.5h14.9
	c0.3,0,0.5-0.2,0.5-0.5v-3.1c0-0.3-0.2-0.5-0.5-0.5h-0.6v-1.4h0.6c0.3,0,0.5-0.2,0.5-0.5v-4.6c0,0,0-0.1,0-0.1c0,0,0-0.1,0-0.1v-3.2
	c0-0.9,2.3-3,4.8-5.3c2.1-1.9,3.8-4.6,4.8-7.6C62.6,46.2,62.4,45.9,62.2,45.8z M51.9,72.4H38v-2.1h14V72.4z M51.9,66.9H38v-3.6h14
	V66.9z"/>
</svg>
