<?xml version="1.0" encoding="utf-8"?>
<!-- Generator: Adobe Illustrator 21.0.0, SVG Export Plug-In . SVG Version: 6.00 Build 0)  -->
<!DOCTYPE svg PUBLIC "-//W3C//DTD SVG 1.1//EN" "http://www.w3.org/Graphics/SVG/1.1/DTD/svg11.dtd">
<svg version="1.1" id="Layer_1" xmlns="http://www.w3.org/2000/svg" xmlns:xlink="http://www.w3.org/1999/xlink" x="0px" y="0px"
	 viewBox="0 0 111 81" style="enable-background:new 0 0 111 81;" xml:space="preserve">
<style type="text/css">
	.st0{fill:#D6E4D2;}
	.st1{fill:#212C41;}
</style>
<path class="st0" d="M106.5,29.1c0.2-0.5,0.3-1,0.3-1.5c0-2.5-2-4.6-4.6-4.6c-0.7,0-1.3,0.2-1.9,0.4c0.1-0.5,0.1-1,0.1-1.5
	c0-5.8-4.7-10.5-10.5-10.5c-5.5,0-10.1,4.3-10.5,9.7c-1.1-0.8-2.4-1.3-3.9-1.3c-3.5,0-6.3,2.8-6.3,6.3c0,0.3,0,0.7,0.1,1h1.6
	c-0.1-0.3-0.1-0.7-0.1-1c0-2.6,2.1-4.7,4.7-4.7c1.6,0,3.1,0.8,4,2.3c0.2,0.4,0.7,0.5,1.1,0.3c0.3-0.2,0.4-0.5,0.4-0.8
	c0,0,0-0.1,0-0.1l0-0.3c0-0.2,0-0.5,0-0.7c0-4.9,4-8.9,8.9-8.9c4.9,0,8.9,4,8.9,8.9c0,1.5-0.4,3-1.1,4.3c-0.2,0.4-0.1,0.9,0.3,1.1
	c0.1,0.1,0.3,0.1,0.4,0.1c0.3,0,0.5-0.1,0.7-0.4c0.2-0.3,0.3-0.6,0.4-0.9c0,0,0.1-0.1,0.1-0.1c0.6-0.9,1.5-1.4,2.5-1.4
	c1.6,0,3,1.3,3,3c0,0.9-0.4,1.7-1.1,2.3c-0.3,0.3-0.4,0.8-0.1,1.1c0.2,0.2,0.4,0.3,0.6,0.3c0.1,0,0.1,0,0.2,0c0.1,0,0.2-0.1,0.3-0.1
	c0.4-0.3,0.8-0.4,1.2-0.4c1.1,0,2,0.9,2,2c0,1.1-0.9,2-2,2c0,0-0.1,0-0.1,0c0,0-0.1,0-0.1,0H78v1.6h28.3c0,0,0.1,0,0.1,0
	c0,0,0.1,0,0.1,0c2,0,3.6-1.6,3.6-3.6C110,30.7,108.5,29.1,106.5,29.1z"/>
<path class="st0" d="M42.2,70.6H7.4c0,0-0.1,0-0.1,0c-2,0-3.6-1.6-3.6-3.6s1.6-3.6,3.6-3.6c0.6,0,1.2,0.2,1.7,0.4
	C9.1,64,9.3,64,9.5,64c0.4,0,0.7-0.3,0.8-0.6c0-0.1,0-0.1,0-0.2c0,0,0,0,0,0c0-3.3,2.7-6,6-6c0,0,0.1,0,0.1,0c0.4,0,0.8-0.4,0.8-0.8
	c0-8.1,6.6-14.7,14.7-14.7c3.1,0,6,1,8.4,2.6l-0.1-2c-2.4-1.4-5.2-2.2-8.2-2.2c-8.7,0-15.8,6.9-16.2,15.5c-3.5,0.3-6.3,3-6.8,6.4
	c-0.5-0.1-1-0.2-1.5-0.2c-2.9,0-5.2,2.3-5.2,5.2c0,2.8,2.2,5,5,5.2c0.1,0,0.1,0,0.2,0h35L42.2,70.6z"/>
<path class="st0" d="M83.8,61.8c-0.1,0-0.2,0-0.2,0c1.2-1.9,1.9-4.1,1.9-6.3c0-6.1-4.7-11.1-10.6-11.7l-0.1,1.6
	c5.1,0.5,9.2,4.8,9.2,10.1c0,2.9-1.2,5.7-3.4,7.6c-0.3,0.3-0.4,0.8-0.1,1.1c0.2,0.2,0.4,0.3,0.6,0.3c0.2,0,0.4-0.1,0.5-0.2
	c0.1-0.1,0.2-0.2,0.3-0.3c0.1,0,0.2-0.1,0.2-0.1c0.5-0.3,1.1-0.4,1.7-0.4c2,0,3.6,1.6,3.6,3.6c0,2-1.6,3.6-3.6,3.6c0,0-0.1,0-0.1,0
	c0,0-0.1,0-0.1,0H72.8l-0.1,1.6h10.9c0,0,0.1,0,0.1,0c0,0,0.1,0,0.1,0c2.9,0,5.2-2.3,5.2-5.2C89,64.1,86.7,61.8,83.8,61.8z"/>
<polygon class="st1" points="40,49 41.4,61.3 73.4,61.3 74.8,49 "/>
<path class="st1" d="M70.5,62.6L69.4,77H45.6l-1.2-14.4h-1.6L44,77.9c0,0.4,0.4,0.7,0.8,0.7h25.3c0.4,0,0.8-0.3,0.8-0.7l1.2-15.3
	H70.5z"/>
<path class="st1" d="M76.3,30.7h-1.9v-3.2c0-0.3-0.2-0.5-0.5-0.5H41c-0.3,0-0.5,0.2-0.5,0.5v3.2h-1.9c-0.6,0-1.1,0.5-1.1,1.1v3.8
	c0,0.6,0.5,1.1,1.1,1.1h1.9c0,0,0,0,0,0.1l0.9,11.1H43l-0.8-10.4h30.5l-0.8,10.4h1.6l0.9-11.1c0,0,0,0,0-0.1h2
	c0.6,0,1.1-0.5,1.1-1.1v-3.8C77.4,31.2,76.9,30.7,76.3,30.7z M75.2,34.4H39.7v-1.6h35.5V34.4z"/>
<path class="st1" d="M62.8,16.9c-0.1,0-0.1-0.1-0.2-0.1c-2.1,0-3.7-1.7-3.7-3.7s1.7-3.7,3.7-3.7c0.9,0,1.7,0.3,2.3,0.8
	c0.2,0.2,0.6,0.2,0.8-0.1c0.2-0.2,0.2-0.6-0.1-0.8c-0.9-0.7-1.9-1.1-3-1.1c-2.7,0-4.8,2.2-4.8,4.8c0,2.6,2.1,4.7,4.6,4.8
	c0.1,0,0.1,0.1,0.2,0.1c1.3,0,2.3,1,2.3,2.3c0,1.3-1,2.3-2.3,2.3c-0.3,0-0.5,0.2-0.5,0.5c0,0.3,0.2,0.5,0.5,0.5
	c1.9,0,3.4-1.5,3.4-3.4C66,18.4,64.6,17,62.8,16.9z"/>
<g>
	<path class="st1" d="M56,9.1c-0.1,0-0.3-0.1-0.4-0.2c-0.2-0.2-0.2-0.6,0-0.8c0.4-0.4,0.7-1,0.7-1.6c0-1.3-1-2.3-2.3-2.3
		c-0.3,0-0.5-0.2-0.5-0.5c0-0.3,0.2-0.5,0.5-0.5c1.9,0,3.4,1.5,3.4,3.4c0,0.9-0.4,1.7-1,2.4C56.3,9,56.2,9.1,56,9.1z"/>
</g>
<path class="st1" d="M54.4,19.5c-0.3,0-0.5,0.2-0.5,0.5c0,1.5-1.2,2.6-2.6,2.6c-1.5,0-2.6-1.2-2.6-2.6s1.2-2.6,2.6-2.6
	c0.1,0,0.2,0,0.3-0.1c1.7-0.2,3-1.7,3-3.4c0-1.9-1.6-3.5-3.5-3.5c-0.3,0-0.5,0.2-0.5,0.5c0,0.3,0.2,0.5,0.5,0.5
	c1.3,0,2.4,1.1,2.4,2.4s-1.1,2.4-2.4,2.4c-0.1,0-0.2,0-0.3,0.1c-1.8,0.2-3.2,1.8-3.2,3.7c0,2,1.7,3.7,3.7,3.7s3.7-1.7,3.7-3.7
	C54.9,19.8,54.7,19.5,54.4,19.5z"/>
<path class="st0" d="M100.7,45c-0.8-0.7-1.9-1-3-0.9c-1.6,0.1-2.9,1-3.5,2.3c-0.8-1.1-2.2-1.9-3.8-1.8c-1.1,0.1-2.1,0.5-2.8,1.3
	c-0.2,0.2-0.2,0.6,0,0.8c0.2,0.2,0.6,0.2,0.8,0c0.5-0.6,1.3-0.9,2.1-1c1.7-0.1,3.2,1,3.3,2.6c0,0.3,0.3,0.5,0.5,0.5c0,0,0,0,0,0
	c0,0,0,0,0,0c0,0,0,0,0,0c0.3,0,0.5-0.3,0.5-0.6c-0.1-1.5,1.2-2.9,2.9-3c0.8-0.1,1.6,0.2,2.2,0.7c0.2,0.2,0.6,0.1,0.8-0.1
	C101,45.6,101,45.2,100.7,45z"/>
<path class="st0" d="M26.3,29.5c-0.9-1.3-2.3-2.2-3.9-2.6c-2.5-0.6-4.9,0.3-6.3,2.1c-0.2-0.7-0.5-1.4-0.9-2
	c-0.9-1.3-2.3-2.2-3.9-2.6c-1.6-0.4-3.3-0.1-4.6,0.6c-0.3,0.1-0.4,0.5-0.2,0.7c0.1,0.3,0.5,0.4,0.7,0.2c1.1-0.6,2.5-0.8,3.9-0.5
	s2.5,1.1,3.2,2.2c0.7,1.1,1,2.3,0.7,3.5c-0.1,0.3,0.1,0.6,0.4,0.6c0,0,0,0,0,0c0,0,0,0,0,0c0,0,0.1,0,0.1,0c0.2,0,0.5-0.2,0.5-0.4
	c0.6-2.5,3.3-4,6.1-3.4c1.3,0.3,2.5,1.1,3.2,2.2c0.2,0.2,0.5,0.3,0.8,0.1C26.4,30,26.4,29.7,26.3,29.5z"/>
<path class="st0" d="M108,60.1c-0.4-0.6-1-1-1.7-1.2c-0.7-0.2-1.5-0.1-2.1,0.2c-0.1,0.1-0.3,0.2-0.4,0.3c-0.3-0.8-1-1.4-1.9-1.6
	c-0.7-0.2-1.5-0.1-2.1,0.2c-0.3,0.1-0.4,0.5-0.2,0.7c0.1,0.3,0.5,0.4,0.7,0.2c0.4-0.2,0.9-0.3,1.3-0.1c0.9,0.2,1.5,1.1,1.3,1.9
	c-0.1,0.3,0.1,0.6,0.4,0.7c0,0,0,0,0,0c0,0,0,0,0,0c0,0,0.1,0,0.1,0c0.2,0,0.5-0.2,0.5-0.4c0.1-0.4,0.4-0.7,0.7-0.9
	c0.4-0.2,0.9-0.3,1.3-0.1c0.5,0.1,0.8,0.4,1.1,0.8c0.2,0.2,0.5,0.3,0.7,0.2C108.1,60.7,108.1,60.3,108,60.1z"/>
<path class="st0" d="M38.2,11.3c-0.6-0.4-1.3-0.5-2.1-0.4c-0.9,0.2-1.7,0.7-2.1,1.5c-0.6-0.6-1.5-0.9-2.4-0.7
	c-0.7,0.1-1.4,0.5-1.8,1.1c-0.2,0.2-0.1,0.6,0.1,0.8s0.6,0.1,0.8-0.1c0.3-0.4,0.7-0.6,1.2-0.7c0.9-0.2,1.8,0.4,2,1.2
	c0,0.3,0.3,0.5,0.5,0.5c0,0,0.1,0,0.1,0c0,0,0,0,0,0c0,0,0,0,0,0c0.3,0,0.5-0.3,0.4-0.6c-0.1-0.8,0.5-1.7,1.5-1.8
	c0.5-0.1,0.9,0,1.3,0.3c0.3,0.2,0.6,0.1,0.7-0.2C38.5,11.8,38.4,11.4,38.2,11.3z"/>
</svg>
