<?xml version="1.0" encoding="utf-8"?>
<!-- Generator: Adobe Illustrator 21.0.0, SVG Export Plug-In . SVG Version: 6.00 Build 0)  -->
<!DOCTYPE svg PUBLIC "-//W3C//DTD SVG 1.1//EN" "http://www.w3.org/Graphics/SVG/1.1/DTD/svg11.dtd">
<svg version="1.1" id="Layer_1" xmlns="http://www.w3.org/2000/svg" xmlns:xlink="http://www.w3.org/1999/xlink" x="0px" y="0px"
	 viewBox="0 0 48 48" style="enable-background:new 0 0 48 48;" xml:space="preserve">
<style type="text/css">
	.st0{fill:#FFFFFF;}
</style>
<path class="st0" d="M43.3,1H4.7C2.7,1,1,2.7,1,4.7v38.6c0,2,1.7,3.7,3.7,3.7h38.6c2,0,3.7-1.7,3.7-3.7V4.7C47,2.7,45.3,1,43.3,1z
	 M37.7,19c0,0.3,0,0.6,0,0.8c0,8.7-6.6,18.7-18.7,18.7c-3.7,0-7.2-1.1-10.1-2.9c0.5,0.1,1,0.1,1.6,0.1c3.1,0,5.9-1,8.2-2.8
	c-2.9-0.1-5.3-2-6.1-4.6c0.4,0.1,0.8,0.1,1.2,0.1c0.6,0,1.2-0.1,1.7-0.2c-3-0.6-5.3-3.3-5.3-6.4c0,0,0-0.1,0-0.1
	c0.9,0.5,1.9,0.8,3,0.8c-1.8-1.2-2.9-3.2-2.9-5.5c0-1.2,0.3-2.3,0.9-3.3c3.2,4,8.1,6.6,13.5,6.9c-0.1-0.5-0.2-1-0.2-1.5
	c0-3.6,2.9-6.6,6.6-6.6c1.9,0,3.6,0.8,4.8,2.1c1.5-0.3,2.9-0.8,4.2-1.6c-0.5,1.5-1.5,2.8-2.9,3.6c1.3-0.2,2.6-0.5,3.8-1
	C40.1,16.9,39,18,37.7,19z"/>
</svg>
