<?xml version="1.0" encoding="utf-8"?>
<!-- Generator: Adobe Illustrator 21.0.0, SVG Export Plug-In . SVG Version: 6.00 Build 0)  -->
<!DOCTYPE svg PUBLIC "-//W3C//DTD SVG 1.1//EN" "http://www.w3.org/Graphics/SVG/1.1/DTD/svg11.dtd">
<svg version="1.1" id="Layer_1" xmlns="http://www.w3.org/2000/svg" xmlns:xlink="http://www.w3.org/1999/xlink" x="0px" y="0px"
	 viewBox="0 0 48 48" style="enable-background:new 0 0 48 48;" xml:space="preserve">
<style type="text/css">
	.st0{fill:#FFFFFF;}
</style>
<g>
	<g>
		<path class="st0" d="M43.7,0.8H4.6c-1.9,0-3.4,1.5-3.4,3.3v39.3c0,1.8,1.5,3.3,3.4,3.3h39.1c1.9,0,3.4-1.5,3.4-3.3V4.1
			C47.1,2.3,45.6,0.8,43.7,0.8z M14.8,39.9H8V18h6.8V39.9z M11.4,15c-2.2,0-4-1.8-4-3.9c0-2.2,1.8-3.9,4-3.9c2.2,0,3.9,1.8,3.9,3.9
			C15.4,13.2,13.6,15,11.4,15z M40.3,39.9h-6.8V29.2c0-2.5,0-5.8-3.5-5.8c-3.5,0-4.1,2.8-4.1,5.6v10.8h-6.8V18h6.5v3h0.1
			c0.9-1.7,3.1-3.5,6.4-3.5c6.9,0,8.2,4.5,8.2,10.4V39.9z"/>
	</g>
</g>
</svg>
